<?xml version="1.0" encoding="utf-8"?>
<!-- Generator: Adobe Illustrator 17.0.1, SVG Export Plug-In . SVG Version: 6.00 Build 0)  -->
<!DOCTYPE svg PUBLIC "-//W3C//DTD SVG 1.1//EN" "http://www.w3.org/Graphics/SVG/1.1/DTD/svg11.dtd">
<svg version="1.1" id="Layer_1" xmlns="http://www.w3.org/2000/svg" xmlns:xlink="http://www.w3.org/1999/xlink" x="0px" y="0px"
	 width="360px" height="292.675px" viewBox="0 0 360 292.675" enable-background="new 0 0 360 292.675" xml:space="preserve">
<path d="M214.448,162.062c-15.678,0.831-36.479,19.111-58.596,51.492c0,0.004-0.114,0.134-0.258,0.33
	c0.82-4.333,2.931-10.122,4.755-15.024c2.683-7.231,5.47-14.724,5.47-19.527c0-5.351-3.396-6.16-5.435-6.16
	c-0.035,0-2.645,0.354-2.645,0.354c-6.595,1.389-20.077,13.447-28.983,21.404c-0.013,0-1.505,1.318-2.977,2.622
	c0.196-0.321,0.548-0.913,0.548-0.913c4-6.579,7.79-12.775,7.79-18.651c0-1.283-0.165-2.434-0.506-3.408
	c-0.82-3.085-3.621-6.75-12.082-6.75c-9.79,0-25.998,5.875-25.998,12.569c0,0.887,0.33,1.755,0.971,2.552
	c0.699,0.86,1.702,1.32,2.982,1.32c1.904,0,3.877-0.977,3.877-2.611c0-1.718,10.736-7.685,18.92-7.685
	c2.211,0,3.723,0.451,4.252,1.281c0.285,0.432,0.386,0.766,0.386,1.266c0,3.853-5.44,11.319-11.202,19.235
	c-7.544,10.365-16.106,22.09-16.106,30.831c0,2.292,0.498,4.076,1.528,5.685c0.524,0.904,1.453,1.441,2.451,1.441
	c1.51,0,2.981-1.106,4.641-3.51c18.312-26.517,40.379-43.87,47.398-47.644c-0.973,2.247-4.705,10.899-4.705,10.899
	c-4.611,10.346-8.264,18.518-8.264,26.53c0,2.164,0.176,3.842,0.578,5.414c0.641,2.805,3.463,8.624,8.125,8.624
	c2.325,0,6-1.556,10.34-8.965c30.502-51.893,48.463-55.906,53.238-55.906c1.631,0,2.645,0.309,2.896,0.712
	c0.73,0.59,0.73,1.967,0.119,2.521c-1.145,1.022-2.04,1.327-1.566,2.41c1.047,2.35,7.852-1.141,6.763-7.008
	c-0.244-1.351-1.111-2.805-2.21-3.835C219.908,162.969,217.906,161.853,214.448,162.062z M221.405,178.424
	c0,0,0.024,0.025,0.045,0.025c-0.223,0.021-0.548,0.098-1.155,0.247c-4.47,1.079-8.761,1.634-11.508,1.723
	c-0.547,0.025-1.06,0.086-1.219-0.183c-0.216-0.4,0.314-0.904,1.027-1.44c0.734-0.574,5.024-2.31,3.986-3.214
	c-1.036-0.896-4.035,0.302-5.333,0.729c-1.275,0.427-7.066,3.236-7.357,7.027c-0.096,1.368,0.291,2.496,1.145,3.421
	c1.243,1.355,3.432,2.039,6.487,2.039c2.911,0,6.713-0.607,12.329-1.939c6.729-1.607,23.851-4.905,33.865-4.905
	c5.544,0,6.759,1.034,6.759,1.287c0,0-0.093,0.585-1.403,1.986c0,0.024-0.166,0.228-0.166,0.228
	c-1.127,1.404-1.686,2.28-1.686,3.147c0,0.957,0.803,1.742,1.744,1.742h0.108l0.228-0.033l1.042-0.402
	c0.053-0.024,2.127-1.364,2.127-1.364c3.839-2.513,4.889-3.179,6.998-5.089c1.549-1.372,3.34-3.254,3.34-5.781
	c0-1.254-0.479-2.521-1.38-3.684c-1.602-2.089-4.741-3.104-9.625-3.104C252.874,170.888,238.295,174.389,221.405,178.424z
	 M222.675,188.806v-0.02c-0.144,1.438-8.712,14.86-14.129,21.399l0.025-0.024c-0.068,0.075-0.139,0.155-0.258,0.311l-0.882,0.948
	c-2.2,0.722-4.532,0.766-6.065,0.798c-1.479,0.035-3.144,0.058-3.144,1.791c0,1.972,2.269,2.81,4.924,3.485
	c-5.175,8.229-7.974,14.967-7.974,19.498c0,3.236,1.329,5.555,3.849,6.666c1.401,0.643,2.494,0.985,3.258,0.985
	c1.061,0,2.167-0.57,2.167-2.175c0-0.049-0.069-0.739-0.069-0.739l-0.144-1.096c0.02-2.154,5.284-14.301,10.265-21.886
	c0.016-0.04,0.599-0.924,0.723-1.07c7.335-1.617,21.469-3.509,29.224-3.908c0,0,0.85,0.028,1.174,0.053
	c0.131,0.261,0.262,0.55,0.262,0.55c0.047,0.056,1.214,0.838,1.214,0.838l0.193,0.13l0.286,0.014l0.125-0.014
	c0.439,0,2.115-0.17,2.115-2.485c0-0.056-0.177-1.104-0.177-1.104c0-0.046-0.086-0.342-0.086-0.342
	c-1.186-3.568-4.827-5.354-10.85-5.354c-5.214,0-11.306,1.311-15.756,2.268c0,0-1.472,0.305-2.609,0.499
	c0.308-0.479,0.596-0.981,0.596-0.981c3.357-5.515,7.152-11.766,7.152-16.717c0-1.355-0.358-2.679-1.029-3.901
	c-0.588-1.159-1.489-1.331-1.988-1.331C223.617,185.891,222.675,187.077,222.675,188.806z"/>
<path fill="#FFFFFF" d="M79.57,147.245c-0.665,0-1.332-0.131-1.96-0.397c-1.486-0.627-2.583-1.929-2.948-3.5
	C64.803,100.963,12.645,18.38,12.12,17.551c-1.344-2.121-0.923-4.908,0.989-6.536c0.942-0.803,2.106-1.203,3.268-1.203
	c1.195,0,2.389,0.423,3.342,1.267c47.463,42.038,76.167,55.747,76.451,55.88c14.061,6.713,26.724,10.108,37.671,10.108
	c31.405-0.001,40.281-28.569,41.391-32.663c0.12-0.894,0.479-1.75,1.056-2.473c0.956-1.198,2.406-1.896,3.939-1.896
	c1.534,0,3.002,0.699,3.959,1.898c0.564,0.709,0.927,1.547,1.059,2.422c1.048,3.904,9.865,32.711,41.376,32.711
	c0.004,0,0.003,0,0.007,0c10.946-0.001,23.605-3.396,37.624-10.091c0.32-0.151,29.051-13.859,76.484-55.896
	c0.953-0.845,2.147-1.268,3.343-1.268c1.162,0,2.325,0.4,3.268,1.203c1.911,1.627,2.334,4.415,0.989,6.536
	c-0.525,0.829-52.681,83.426-62.535,125.795c-0.366,1.572-1.462,2.874-2.948,3.501c-0.629,0.266-1.296,0.397-1.961,0.397
	c-0.904,0-1.804-0.243-2.6-0.722l0,0c-0.387-0.232-39.303-23.229-97.732-25.172h-0.641c-58.612,1.949-97.358,24.938-97.743,25.17
	C81.378,147,80.476,147.245,79.57,147.245z"/>
<path fill="#B28F50" d="M180.641,116.31c60.641,1.995,100.249,25.895,100.249,25.895c10.166-43.708,63.188-127.352,63.188-127.352
	c-48.714,43.17-77.655,56.671-77.655,56.671c-72.279,34.518-86.196-26.449-86.196-26.449h0.035c0,0-13.929,60.967-86.229,26.449
	c0,0-28.913-13.501-77.655-56.671c0,0,53.027,83.644,63.194,127.352c0,0,39.611-23.899,100.264-25.895H180.641z"/>
<path d="M185.125,264.28c-65.671,0-108.97-28.512-108.97-63.71c0-35.194,39.571-64.956,105.249-64.956
	c40.182,0,78.877,16.484,98.996,35.991c4.878-3.037,8.534-5.488,14.131-8.656c-22.875-22.152-65.822-37.071-115.025-37.071
	c-73.236,0-132.608,33.036-132.608,73.78c0,40.752,59.372,73.775,132.608,73.775c53.182,0,99.047-17.426,120.176-42.584
	C279.579,250.763,230.318,264.28,185.125,264.28z"/>
<path d="M295.456,130.423c2.243,0,4.156,0.797,5.74,2.389c1.574,1.588,2.361,3.505,2.361,5.749c0,2.264-0.787,4.194-2.361,5.79
	c-1.575,1.591-3.489,2.39-5.74,2.39c-2.25,0-4.164-0.799-5.737-2.39c-1.567-1.596-2.35-3.527-2.35-5.79
	c0-2.244,0.788-4.161,2.363-5.749C291.316,131.22,293.221,130.423,295.456,130.423z M304.893,138.548
	c0-2.602-0.918-4.816-2.754-6.649c-1.836-1.832-4.059-2.748-6.663-2.748c-2.587,0-4.796,0.916-6.623,2.748
	c-1.836,1.841-2.754,4.056-2.754,6.649c0,2.618,0.911,4.85,2.729,6.69c1.827,1.848,4.045,2.772,6.648,2.772
	c2.604,0,4.827-0.924,6.663-2.772C303.975,143.39,304.893,141.158,304.893,138.548z M297.956,136.504
	c0,0.79-0.354,1.323-1.062,1.605c-0.385,0.15-0.962,0.229-1.729,0.229h-1.638v-3.714h1.549c1.005,0,1.738,0.126,2.194,0.383
	C297.727,135.259,297.956,135.759,297.956,136.504z M291.702,133.354v10.358h1.824v-4.104h1.413c0.95,0,1.615,0.11,1.991,0.334
	c0.641,0.387,0.959,1.185,0.959,2.391v0.826l0.04,0.334c0.009,0.045,0.015,0.081,0.026,0.118c0.008,0.033,0.016,0.069,0.026,0.102
	h1.731l-0.068-0.13c-0.046-0.086-0.079-0.265-0.098-0.541c-0.022-0.273-0.027-0.529-0.027-0.773v-0.758
	c0-0.524-0.187-1.062-0.553-1.612c-0.368-0.554-0.948-0.892-1.742-1.023c0.634-0.101,1.129-0.269,1.484-0.496
	c0.67-0.436,1.004-1.115,1.004-2.04c0-1.298-0.533-2.17-1.598-2.613c-0.596-0.245-1.533-0.371-2.811-0.371H291.702z"/>
</svg>
